<svg aria-hidden="true" style="position:absolute;width:0;height:0" xmlns="http://www.w3.org/2000/svg" overflow="hidden"><defs><symbol id="icon-All-Inclusive" viewBox="0 0 32 32"><path d="M24.812 8.812c2 0 3.698.708 5.093 2.125s2.093 3.104 2.093 5.063c0 1.958-.698 3.646-2.093 5.063s-3.093 2.125-5.093 2.125h-.063c-.792 0-1.677-.208-2.656-.625s-1.781-.917-2.407-1.5l-1.688-1.5 2-1.751 1.563 1.312c.916.916 2 1.375 3.251 1.375s2.313-.437 3.188-1.312 1.312-1.937 1.312-3.188-.437-2.313-1.312-3.188-1.937-1.312-3.188-1.312-2.313.437-3.188 1.312c-2.958 2.583-4.833 4.25-5.625 5l-3.751 3.312c-1.375 1.375-3.063 2.063-5.063 2.063s-3.698-.708-5.093-2.125C.696 19.644-.001 17.957-.001 15.998s.698-3.646 2.093-5.063C3.488 9.518 5.185 8.81 7.185 8.81h.063c.834 0 1.74.208 2.719.625s1.76.917 2.344 1.5l1.688 1.5-2.063 1.751-1.5-1.312c-.916-.916-2-1.375-3.251-1.375s-2.313.437-3.188 1.312-1.312 1.937-1.312 3.188.437 2.313 1.312 3.188 1.937 1.312 3.188 1.312 2.313-.437 3.188-1.312c2.958-2.583 4.833-4.25 5.625-5l3.751-3.312c1.375-1.375 3.063-2.063 5.063-2.063z"/></symbol><symbol id="icon-Block" viewBox="0 0 32 32"><path d="M16 26.688c2.916 0 5.427-1.052 7.531-3.156s3.156-4.614 3.156-7.531c0-1-.219-2.146-.656-3.437s-.968-2.333-1.593-3.125l-15 15c1.875 1.5 4.062 2.251 6.563 2.251zM5.312 16c0 1 .219 2.146.656 3.437s.968 2.333 1.593 3.125l15-15c-1.875-1.5-4.062-2.251-6.563-2.251-2.916 0-5.427 1.052-7.531 3.156s-3.156 4.614-3.156 7.531zM16 2.688c3.667 0 6.802 1.302 9.407 3.907s3.907 5.74 3.907 9.407-1.302 6.802-3.907 9.407-5.74 3.907-9.407 3.907-6.802-1.302-9.407-3.907-3.907-5.74-3.907-9.407S3.988 9.2 6.593 6.595 12.333 2.688 16 2.688z"/></symbol><symbol id="icon-Slow-Motion-Video" viewBox="0 0 32 32"><path d="M29.312 16c0 3.417-1.146 6.396-3.437 8.937s-5.125 3.979-8.5 4.312v-2.688C20 26.228 22.208 25.051 24 23.03s2.688-4.364 2.688-7.031-.896-5.01-2.688-7.031-4-3.197-6.625-3.531V2.749c3.375.333 6.208 1.771 8.5 4.312s3.437 5.52 3.437 8.937zM7.563 26.312l1.875-1.875c1.5 1.167 3.251 1.876 5.251 2.125v2.688c-1.125-.125-2.386-.48-3.781-1.063s-2.51-1.208-3.344-1.875zm-2.126-9C5.645 19.27 6.353 21 7.562 22.5l-1.875 1.937c-1.708-2.125-2.688-4.5-2.937-7.125h2.688zm2.126-7.875c-1.167 1.541-1.876 3.292-2.125 5.251H2.75c.125-1.125.48-2.386 1.063-3.781s1.208-2.51 1.875-3.344zm7.125-4c-2 .25-3.75.958-5.251 2.125L7.562 5.687c2.125-1.708 4.5-2.688 7.125-2.937v2.688zm2.687 7.626L21.312 16a1915.565 1915.565 0 00-8 6z"/></symbol></defs></svg>