<svg aria-hidden="true" style="position: absolute; width: 0; height: 0; overflow: hidden;" version="1.1" xmlns="http://www.w3.org/2000/svg" xmlns:xlink="http://www.w3.org/1999/xlink">
<defs>
<symbol id="icon-All-Inclusive" viewBox="0 0 32 32">
<title>All-Inclusive</title>
<path d="M24.812 8.812c2 0 3.698 0.708 5.093 2.125s2.093 3.104 2.093 5.063c0 1.958-0.698 3.646-2.093 5.063s-3.093 2.125-5.093 2.125h-0.063c-0.792 0-1.677-0.208-2.656-0.625s-1.781-0.917-2.407-1.5l-1.688-1.5 2-1.751 1.563 1.312c0.916 0.916 2 1.375 3.251 1.375s2.313-0.437 3.188-1.312c0.875-0.875 1.312-1.937 1.312-3.188s-0.437-2.313-1.312-3.188c-0.875-0.875-1.937-1.312-3.188-1.312s-2.313 0.437-3.188 1.312c-2.958 2.583-4.833 4.25-5.625 5l-3.751 3.312c-1.375 1.375-3.063 2.063-5.063 2.063s-3.698-0.708-5.093-2.125c-1.396-1.417-2.093-3.104-2.093-5.063s0.698-3.646 2.093-5.063c1.396-1.417 3.093-2.125 5.093-2.125h0.063c0.834 0 1.74 0.208 2.719 0.625s1.76 0.917 2.344 1.5l1.688 1.5-2.063 1.751-1.5-1.312c-0.916-0.916-2-1.375-3.251-1.375s-2.313 0.437-3.188 1.312c-0.875 0.875-1.312 1.937-1.312 3.188s0.437 2.313 1.312 3.188c0.875 0.875 1.937 1.312 3.188 1.312s2.313-0.437 3.188-1.312c2.958-2.583 4.833-4.25 5.625-5l3.751-3.312c1.375-1.375 3.063-2.063 5.063-2.063z"></path>
</symbol>
<symbol id="icon-Block" viewBox="0 0 32 32">
<title>Block</title>
<path d="M16 26.688c2.916 0 5.427-1.052 7.531-3.156s3.156-4.614 3.156-7.531c0-1-0.219-2.146-0.656-3.437s-0.968-2.333-1.593-3.125l-15 15c1.875 1.5 4.062 2.251 6.563 2.251zM5.312 16c0 1 0.219 2.146 0.656 3.437s0.968 2.333 1.593 3.125l15-15c-1.875-1.5-4.062-2.251-6.563-2.251-2.916 0-5.427 1.052-7.531 3.156s-3.156 4.614-3.156 7.531zM16 2.688c3.667 0 6.802 1.302 9.407 3.907s3.907 5.74 3.907 9.407c0 3.667-1.302 6.802-3.907 9.407s-5.74 3.907-9.407 3.907c-3.667 0-6.802-1.302-9.407-3.907s-3.907-5.74-3.907-9.407c0-3.667 1.302-6.802 3.907-9.407s5.74-3.907 9.407-3.907z"></path>
</symbol>
<symbol id="icon-Slow-Motion-Video" viewBox="0 0 32 32">
<title>Slow-Motion-Video</title>
<path d="M29.312 16c0 3.417-1.146 6.396-3.437 8.937s-5.125 3.979-8.5 4.312v-2.688c2.625-0.333 4.833-1.51 6.625-3.531s2.688-4.364 2.688-7.031c0-2.667-0.896-5.010-2.688-7.031s-4-3.197-6.625-3.531v-2.688c3.375 0.333 6.208 1.771 8.5 4.312s3.437 5.52 3.437 8.937zM7.563 26.312l1.875-1.875c1.5 1.167 3.251 1.876 5.251 2.125v2.688c-1.125-0.125-2.386-0.48-3.781-1.063s-2.51-1.208-3.344-1.875zM5.437 17.312c0.208 1.958 0.916 3.688 2.125 5.188l-1.875 1.937c-1.708-2.125-2.688-4.5-2.937-7.125h2.688zM7.563 9.437c-1.167 1.541-1.876 3.292-2.125 5.251h-2.688c0.125-1.125 0.48-2.386 1.063-3.781s1.208-2.51 1.875-3.344zM14.688 5.437c-2 0.25-3.75 0.958-5.251 2.125l-1.875-1.875c2.125-1.708 4.5-2.688 7.125-2.937v2.688zM17.375 13.063l3.937 2.937c-2.625 1.958-5.292 3.958-8 6z"></path>
</symbol>
</defs>
</svg>
