<svg xmlns="http://www.w3.org/2000/svg" width="385.42" height="304.238"><g transform="translate(-276)"><path fill="#f3d3d3" d="M333.805 90.437h237.179v155.997H333.805z"/><path fill="none" stroke="#3f3d56" stroke-miterlimit="10" d="M276.5.5h384.42v303.238H276.5zm.398 17.51h384.42"/><circle cx="3.98" cy="3.98" r="3.98" transform="translate(280.479 6.071)" fill="#f86b75"/><circle cx="3.98" cy="3.98" r="3.98" transform="translate(291.622 6.071)" fill="#fad375"/><circle cx="3.98" cy="3.98" r="3.98" transform="translate(302.765 6.071)" fill="#8bcc55"/><circle cx="3.98" cy="3.98" r="3.98" transform="translate(282.071 3.684)" fill="none" stroke="#3f3d56" stroke-miterlimit="10"/><circle cx="3.98" cy="3.98" r="3.98" transform="translate(293.214 3.684)" fill="none" stroke="#3f3d56" stroke-miterlimit="10"/><circle cx="3.98" cy="3.98" r="3.98" transform="translate(304.357 3.684)" fill="none" stroke="#3f3d56" stroke-miterlimit="10"/><path fill="none" stroke="#3f3d56" stroke-miterlimit="10" d="M352.509 73.325h237.179v155.997H352.509z"/><path fill="#010a43" d="M541.933 263.545h43.775v11.939h-43.775z"/><path fill="none" stroke="#3f3d56" stroke-miterlimit="10" d="M545.913 260.362h43.775v11.939h-43.775z"/><path d="M473.796 164.492l-18.313-18.874a4.163 4.163 0 00-3.061-1.23h-.055a4.163 4.163 0 00-3.061 1.23l-18.313 18.874a4.041 4.041 0 000 5.9 4.52 4.52 0 006.177 0l10.851-11.342v29.247a4.378 4.378 0 008.747 0V159.05l10.851 11.343a4.52 4.52 0 006.177 0 4.041 4.041 0 000-5.9z" fill="#010a43"/></g></svg>