<svg xmlns="http://www.w3.org/2000/svg" width="385.42" height="304.238" viewBox="0 0 385.42 304.238"><g transform="translate(-276)"><rect width="237.179" height="155.997" transform="translate(333.805 90.437)" fill="#f3d3d3"/><rect width="384.42" height="303.238" transform="translate(276.5 0.5)" fill="none" stroke="#3f3d56" stroke-miterlimit="10" stroke-width="1"/><line x2="384.42" transform="translate(276.898 18.01)" fill="none" stroke="#3f3d56" stroke-miterlimit="10" stroke-width="1"/><circle cx="3.98" cy="3.98" r="3.98" transform="translate(280.479 6.071)" fill="#f86b75"/><circle cx="3.98" cy="3.98" r="3.98" transform="translate(291.622 6.071)" fill="#fad375"/><circle cx="3.98" cy="3.98" r="3.98" transform="translate(302.765 6.071)" fill="#8bcc55"/><circle cx="3.98" cy="3.98" r="3.98" transform="translate(282.071 3.684)" fill="none" stroke="#3f3d56" stroke-miterlimit="10" stroke-width="1"/><circle cx="3.98" cy="3.98" r="3.98" transform="translate(293.214 3.684)" fill="none" stroke="#3f3d56" stroke-miterlimit="10" stroke-width="1"/><circle cx="3.98" cy="3.98" r="3.98" transform="translate(304.357 3.684)" fill="none" stroke="#3f3d56" stroke-miterlimit="10" stroke-width="1"/><rect width="237.179" height="155.997" transform="translate(352.509 73.325)" fill="none" stroke="#3f3d56" stroke-miterlimit="10" stroke-width="1"/><rect width="43.775" height="11.939" transform="translate(541.933 263.545)" fill="#010a43"/><rect width="43.775" height="11.939" transform="translate(545.913 260.362)" fill="none" stroke="#3f3d56" stroke-miterlimit="10" stroke-width="1"/><path d="M733.085,304.242l-18.313-18.874a4.163,4.163,0,0,0-3.061-1.23h-.055a4.163,4.163,0,0,0-3.061,1.23l-18.313,18.874a4.041,4.041,0,0,0,0,5.9,4.52,4.52,0,0,0,6.177,0L707.31,298.8v29.247a4.378,4.378,0,0,0,8.747,0V298.8l10.851,11.343a4.52,4.52,0,0,0,6.177,0,4.041,4.041,0,0,0,0-5.9Z" transform="translate(-259.289 -139.75)" fill="#010a43"/></g></svg>